<svg xmlns="http://www.w3.org/2000/svg" width="42" height="42" viewBox="0 0 42 42">
    <g fill="none" fill-rule="evenodd">
        <path stroke="#3184EE" d="M21 41c11.045 0 20-8.953 20-20C41 9.956 32.045 1 21 1S1 9.956 1 21c0 11.047 8.955 20 20 20" opacity=".4"/>
        <g fill="#3184EE" fill-rule="nonzero">
            <path d="M28.407 14.584l-2.749 14.034s-.384.974-1.441.506L17.875 24.2l-2.307-1.13-3.882-1.323s-.596-.214-.654-.68c-.057-.468.673-.72.673-.72l15.434-6.132c0-.001 1.268-.566 1.268.369z"/>
            <path d="M17.386 28.46s-.185-.018-.416-.758c-.23-.74-1.403-4.632-1.403-4.632l9.322-5.996s.538-.33.519 0c0 0 .096.059-.192.332-.288.272-7.323 6.676-7.323 6.676"/>
            <path d="M20.306 26.087l-2.508 2.317s-.196.15-.41.056l.48-4.303"/>
        </g>
    </g>
</svg>
