<svg xmlns="http://www.w3.org/2000/svg" width="42" height="42" viewBox="0 0 42 42">
    <g fill="none" fill-rule="evenodd">
        <path stroke="#3184EE" d="M21 41c11.045 0 20-8.953 20-20C41 9.956 32.045 1 21 1S1 9.956 1 21c0 11.047 8.955 20 20 20" opacity=".5"/>
        <path fill="#3184EE" d="M17 17.624h1.758v-1.709c0-.753.019-1.915.567-2.635.576-.762 1.368-1.28 2.729-1.28 2.218 0 3.152.316 3.152.316l-.439 2.605s-.733-.212-1.417-.212-1.296.245-1.296.929v1.986h2.804l-.196 2.544h-2.608v8.84h-3.296v-8.84H17v-2.544z"/>
    </g>
</svg>
