<svg xmlns="http://www.w3.org/2000/svg" width="151" height="36" viewBox="0 0 151 36">
    <defs>
        <linearGradient id="a" x1="0%" x2="492.969%" y1="-31.283%" y2="581.391%">
            <stop offset="0%" stop-color="#F74254"/>
            <stop offset="100%" stop-color="#FCDB93"/>
        </linearGradient>
    </defs>
    <g fill="none" fill-rule="evenodd">
        <path fill="url(#a)" d="M12.999 33.668c-.57-.604-.946-1.203-.946-2.21 0-1.003.37-1.703.94-2.305l.006.004.008-.004c.57.602.94 1.302.94 2.306 0 1.006-.373 1.605-.948 2.209zM24.81.193c-4.133.674-7.85 1.914-10.702 3.547 0 0-1.973 1.003-3.878 2.827-2.027 1.942-2.03 4.66-2.03 4.66l-.005 8.171c-.005.318-.15.663-.328.937-.26.399-.228.655.262.699.36.03.614.03.72.03h8.35c.503-.002 1.07-.016 1.078-.727.018-1.873.015-3.745.018-5.618 0-.504-.26-.759-.774-.796a56.113 56.113 0 0 1-1.895-.167c-1.051-.113-1.735-.26-1.807-1.1.962-.127 1.153-.066 1.9-.311 2.184-.725 2.105-2.395 1.958-3.394-.131-.912-.898-1.816-1.716-2.578-.747.41-1.277.775-1.865 1.306.506.431 1.015 1.146 1.015 2.077 0 1.265-.617 2.31-2.496 2.234 0 1.802.79 2.102 2.108 2.65.271.113.377.473.377.724 0 1.434-.008 2.652-.008 3.978 0 .68-.361.989-1.045.982-.71-.008-1.838-.003-2.532-.003 0 0-.011-9.021-.011-10.13.063-2.222 2.273-3.871 3.143-4.424 2.419-1.494 5.651-2.67 9.307-3.38v20.186c-4.247.78-8.009 2.167-10.775 3.961l-.005-.004-.178.124c-2.777-1.853-6.613-3.283-10.95-4.083V2.387c3.094.55 5.966 1.655 8.054 2.632.474-.448 1.272-1.026 1.762-1.376C9.132 2.228 5.259.853 1.187.193L0 0v24.264l.856.141c4.165.68 7.853 1.95 10.54 3.617-.04.041-.077.081-.117.125-.774.896-1.197 2.07-1.197 3.312 0 1.24.423 2.414 1.197 3.31.485.559 1.07.975 1.72 1.231a4.408 4.408 0 0 0 1.72-1.231c.776-.896 1.202-2.07 1.202-3.31 0-1.241-.426-2.416-1.202-3.312-.035-.044-.075-.084-.114-.125 2.683-1.666 6.372-2.938 10.539-3.616l.856-.14V0l-1.19.193z"/>
        <g fill="#151515">
            <path d="M37.206 18.997h1.104c1.068 0 1.795-.093 2.182-.28.385-.186.579-.564.579-1.134 0-.534-.226-.902-.672-1.108-.443-.204-1.141-.305-2.09-.305h-1.103v2.827zm0-4.611h.99c.65 0 1.258-.113 1.827-.342.567-.225.848-.578.848-1.058a.938.938 0 0 0-.472-.85c-.314-.194-1.048-.29-2.204-.29h-.989v2.54zm-1.602 6.455c-.405 0-.604-.188-.604-.567v-9.707c0-.378.2-.567.604-.567h2.57c1.934 0 3.243.239 3.918.715.678.476 1.018 1.209 1.018 2.196 0 .691-.252 1.225-.76 1.603-.505.377-.998.598-1.47.658v.023c.458.029.998.261 1.616.696.623.433.934 1.044.934 1.835 0 .929-.379 1.68-1.136 2.254-.757.575-2.004.861-3.744.861h-2.946zM46.36 15.678c0 1.26.225 2.223.674 2.89.452.67 1.168 1.004 2.151 1.004.983 0 1.702-.334 2.154-1.003.449-.668.675-1.631.675-2.891s-.226-2.224-.675-2.892c-.452-.668-1.171-1.002-2.154-1.002-.983 0-1.699.334-2.15 1.002-.45.668-.676 1.632-.676 2.892m-2.359 0c0-1.738.446-3.12 1.344-4.143.898-1.024 2.18-1.535 3.841-1.535 1.664 0 2.943.511 3.84 1.535.895 1.023 1.347 2.405 1.347 4.143 0 1.739-.452 3.12-1.346 4.143-.898 1.023-2.177 1.535-3.841 1.535-1.66 0-2.943-.512-3.84-1.535C44.445 18.798 44 17.417 44 15.678M58.36 15.678c0 1.26.225 2.223.677 2.89.452.67 1.168 1.004 2.151 1.004.983 0 1.699-.334 2.15-1.003.45-.668.679-1.631.679-2.891s-.23-2.224-.678-2.892c-.452-.668-1.168-1.002-2.151-1.002-.983 0-1.699.334-2.15 1.002-.453.668-.679 1.632-.679 2.892m-2.359 0c0-1.738.449-3.12 1.347-4.143.898-1.024 2.177-1.535 3.841-1.535 1.664 0 2.943.511 3.84 1.535.895 1.023 1.344 2.405 1.344 4.143 0 1.739-.449 3.12-1.343 4.143-.898 1.023-2.177 1.535-3.841 1.535-1.664 0-2.943-.512-3.84-1.535-.9-1.023-1.348-2.404-1.348-4.143M68.528 20.841c-.352 0-.528-.188-.528-.568v-9.706c0-.378.176-.567.528-.567h1.15c.356 0 .531.19.531.567v3.01c0 .302-.014.606-.038.907h.038l3.689-4.037c.272-.297.504-.447.695-.447h1.52c.59 0 .687.218.287.651l-3.439 3.775 3.686 5.768c.278.43.182.647-.285.647h-1.414c-.261 0-.49-.148-.683-.446l-2.788-4.355-1.268 1.407v2.824c0 .38-.175.57-.53.57h-1.151zM78.272 20.25c-.267-.241-.337-.452-.212-.635l.394-.566c.135-.197.355-.182.657.045.4.297.813.543 1.244.733.431.193.954.288 1.567.288.455 0 .84-.067 1.15-.204.311-.136.564-.332.752-.586.19-.255.284-.564.284-.928 0-.262-.038-.506-.117-.73a1.315 1.315 0 0 0-.373-.564 2.307 2.307 0 0 0-.537-.356c-.308-.138-.768-.298-1.379-.48-.613-.183-1.15-.38-1.608-.591-.455-.22-.816-.484-1.086-.796-.27-.31-.445-.63-.534-.961a4.22 4.22 0 0 1-.134-1.12c0-.64.187-1.19.56-1.652.372-.463.83-.77 1.37-.922A6.166 6.166 0 0 1 81.922 10c.64 0 1.197.082 1.673.247.472.166.897.381 1.27.646.261.185.32.381.182.588l-.387.553c-.115.167-.341.131-.681-.106a5 5 0 0 0-.939-.51c-.37-.16-.74-.24-1.1-.24-.467 0-.851.055-1.159.164-.306.109-.55.291-.725.548a1.544 1.544 0 0 0-.264.892c0 .213.02.408.062.587.04.18.143.361.308.549.167.187.37.331.604.431.317.136.813.297 1.479.48.669.184 1.253.41 1.748.677.464.248.802.507 1.001.776a3.086 3.086 0 0 1 .648 1.941c0 .715-.181 1.314-.55 1.793-.37.479-.805.81-1.31.999-.502.187-1.135.279-1.898.279-.91 0-1.667-.105-2.265-.317-.602-.211-1.05-.454-1.347-.726M87 15.647c0-1.765.437-3.147 1.309-4.147.874-1 2.133-1.5 3.77-1.5.957 0 1.749.162 2.374.487.625.326 1.074.77 1.347 1.334.14.294.117.494-.07.605l-.596.348c-.2.116-.382.02-.537-.287-.168-.318-.44-.615-.816-.892-.379-.277-.921-.417-1.626-.417-1.261 0-2.177.393-2.749 1.176-.572.785-.857 1.882-.857 3.293 0 1.411.285 2.508.857 3.291.572.785 1.488 1.177 2.75 1.177.724 0 1.305-.166 1.742-.498.435-.335.751-.682.948-1.044.156-.293.337-.381.546-.265l.625.356c.182.107.197.307.047.605-.3.579-.78 1.061-1.453 1.448-.669.386-1.514.577-2.532.577-1.637 0-2.896-.499-3.77-1.5-.872-1-1.309-2.383-1.309-4.147M98.452 14.906h2.183c.983 0 1.74-.13 2.271-.39.526-.258.793-.804.793-1.637 0-.634-.241-1.067-.728-1.295-.484-.23-1.138-.345-1.972-.345h-2.547v3.667zm-1.074 5.935c-.252 0-.378-.139-.378-.416v-10.01c0-.277.126-.415.378-.415h3.65c1.459 0 2.512.272 3.166.817.652.544.977 1.262.977 2.154 0 .785-.272 1.445-.818 1.982-.546.534-1.303.841-2.277.921v.016c.514.382.854.673 1.021.872.165.2.352.468.558.805l1.617 2.775c.196.332.161.499-.11.499h-.774c-.214 0-.375-.098-.493-.294l-1.572-2.699c-.226-.389-.552-.769-.975-1.142-.425-.373-.95-.56-1.58-.56h-1.316v4.279c0 .277-.126.416-.378.416h-.696zM108.376 20.841c-.25 0-.376-.138-.376-.415v-10.01c0-.277.126-.416.376-.416h.698c.25 0 .375.139.375.416v10.01c0 .277-.125.415-.375.415h-.698zM113.452 15.247h2.125c1.109 0 1.866-.158 2.268-.472.404-.316.608-.826.608-1.531 0-.707-.204-1.216-.608-1.532-.402-.315-1.16-.472-2.268-.472h-2.125v4.007zm-1.074 5.594c-.252 0-.378-.138-.378-.416V10.416c0-.277.126-.416.378-.416h3.175c1.714 0 2.873.29 3.472.866.598.577.9 1.37.9 2.378 0 1.007-.302 1.8-.9 2.377-.6.577-1.758.867-3.472.867h-2.1v3.937c0 .278-.127.416-.38.416h-.695zM121.428 11.3c-.287 0-.428-.113-.428-.34v-.62c0-.226.14-.34.425-.34h8.245c.288 0 .432.114.432.34v.62c0 .227-.147.34-.432.34h-3.394v9.125c0 .278-.13.416-.379.416h-.695c-.253 0-.379-.138-.379-.415V11.3h-3.395zM143.45 14.906h2.182c.983 0 1.743-.13 2.271-.39.528-.258.793-.804.793-1.637 0-.634-.243-1.067-.725-1.295-.484-.23-1.141-.345-1.975-.345h-2.547v3.667zm-1.072 5.935c-.255 0-.378-.139-.378-.416v-10.01c0-.277.123-.415.378-.415h3.65c1.456 0 2.51.272 3.163.817.652.544.98 1.262.98 2.154 0 .785-.272 1.445-.82 1.982-.547.534-1.304.841-2.278.921v.016c.517.382.857.673 1.021.872.168.2.352.468.56.805l1.618 2.775c.193.332.158.499-.11.499h-.777c-.211 0-.375-.098-.493-.294l-1.572-2.699c-.226-.389-.552-.769-.974-1.142-.423-.373-.951-.56-1.579-.56h-1.318v4.279c0 .277-.126.416-.378.416h-.693zM131.55 15.647c0 1.411.29 2.508.867 3.291.581.785 1.465 1.177 2.647 1.177 1.182 0 2.069-.392 2.644-1.177.581-.783.871-1.88.871-3.29 0-1.412-.29-2.51-.871-3.294-.575-.783-1.462-1.176-2.644-1.176-1.182 0-2.066.393-2.647 1.176-.577.785-.868 1.882-.868 3.293m-1.549 0c0-1.765.434-3.147 1.303-4.147.868-1 2.124-1.5 3.761-1.5s2.893.5 3.762 1.5c.868 1 1.303 2.382 1.303 4.147 0 1.764-.435 3.147-1.303 4.147-.869 1.001-2.125 1.5-3.762 1.5s-2.893-.499-3.761-1.5c-.87-1-1.303-2.383-1.303-4.147"/>
        </g>
    </g>
</svg>
