<svg xmlns="http://www.w3.org/2000/svg" width="30" height="42" viewBox="0 0 30 42">
    <path fill="#000" fill-rule="evenodd" d="M14.998 39.28c-.657-.706-1.09-1.405-1.09-2.578 0-1.17.427-1.988 1.084-2.69l.006.005.01-.005c.657.702 1.085 1.52 1.085 2.69 0 1.173-.43 1.872-1.095 2.577zM28.628.225c-4.77.786-9.059 2.232-12.35 4.137 0 0-2.277 1.17-4.474 3.298-2.339 2.266-2.342 5.437-2.342 5.437l-.006 9.533c-.006.37-.174.774-.379 1.093-.3.465-.263.764.302.815.416.036.71.036.831.036h9.635c.58-.003 1.235-.018 1.244-.848.02-2.185.017-4.37.02-6.554 0-.589-.299-.886-.892-.93a64.051 64.051 0 0 1-2.187-.194c-1.213-.132-2.002-.304-2.085-1.284 1.11-.148 1.33-.077 2.193-.363 2.519-.845 2.428-2.794 2.26-3.96-.153-1.063-1.037-2.118-1.981-3.007-.862.478-1.474.905-2.152 1.524.584.503 1.17 1.337 1.17 2.424 0 1.475-.712 2.694-2.88 2.605 0 2.103.911 2.453 2.433 3.093.313.13.435.55.435.843 0 1.674-.01 3.095-.01 4.642 0 .794-.416 1.153-1.205 1.145-.818-.009-2.12-.003-2.922-.003 0 0-.012-10.525-.012-11.818.073-2.593 2.623-4.517 3.626-5.161 2.791-1.744 6.521-3.115 10.74-3.944v23.55c-4.901.911-9.242 2.528-12.433 4.622l-.007-.005-.205.145c-3.204-2.162-7.63-3.83-12.635-4.765V2.785c3.57.64 6.884 1.931 9.293 3.07.548-.523 1.469-1.196 2.034-1.604C10.537 2.599 6.069.996 1.37.226L0 0v28.308l.988.165c4.805.792 9.061 2.275 12.16 4.22l-.134.146c-.893 1.044-1.38 2.415-1.38 3.863 0 1.447.487 2.817 1.38 3.861A5.11 5.11 0 0 0 14.998 42a5.088 5.088 0 0 0 1.985-1.437c.896-1.044 1.387-2.414 1.387-3.861 0-1.448-.491-2.819-1.387-3.863-.04-.052-.086-.098-.131-.147 3.096-1.944 7.352-3.427 12.16-4.218l.988-.163V0l-1.373.226z" opacity=".2"/>
</svg>
