<svg xmlns="http://www.w3.org/2000/svg" width="92" height="92" viewBox="0 0 92 92">
    <g fill="none" fill-rule="evenodd">
        <circle cx="46" cy="46" r="46" fill="#4B8BF5" opacity=".12"/>
        <g stroke="#3184EE" stroke-linejoin="round" stroke-width="2">
            <path d="M60.438 58.502s-9.1.146-18.862 0c-8.688-.13-11.044 3.003-11.292 3.033"/>
            <path d="M60.325 58.502v3.033H30.283V28.984s2.505-3.545 10.665-3.545h1.743"/>
            <path d="M67.419 56.673l-.556 2.981-29.538-5.453 2.56-13.709L43.3 22.198s3.114-3.032 11.137-1.55l11.66 2.153c4.421.816 7.222-.073 7.222-.073s0 3.845-.963 9.978c-1.012 6.434-4.828 23.987-4.828 23.987s-8.945-1.65-18.544-3.424c-9.599-1.773-11.66.932-11.66.932M52.292 63.088l-18.688 2.537c-9.674 1.313-10.776 4.523-10.776 4.523"/>
            <path d="M52.18 62.218l.413 3.89-29.765 4.04-1.897-13.815-2.53-18.436s1.998-3.85 10.084-4.947l1.797-.244M49.652 29.061l15.428 2.656M48.856 33.281l8.7 1.498"/>
        </g>
    </g>
</svg>
